<svg width="300" height="300" viewBox="0 0 300 300" fill="none" xmlns="http://www.w3.org/2000/svg">
<rect width="300" height="300" rx="30" fill="url(#paint0_linear_2_125)"/>
<path d="M158.273 183.421C177.133 183.421 192.421 168.133 192.421 149.273C192.421 130.414 177.133 115.125 158.273 115.125C139.414 115.125 124.125 130.414 124.125 149.273C124.125 168.133 139.414 183.421 158.273 183.421Z" fill="#6349F5"/>
<path d="M219.008 58.4194C222.422 60.706 222.714 65.516 219.808 68.4213L194.853 93.3763C192.598 95.6318 189.099 95.988 186.26 94.5338C177.866 90.2333 168.353 87.8071 158.273 87.8071C124.326 87.8071 96.8071 115.326 96.8071 149.273C96.8071 159.353 99.2333 168.866 103.534 177.26C104.988 180.099 104.632 183.598 102.376 185.853L77.4213 210.808C74.516 213.714 69.706 213.422 67.4194 210.008C55.7854 192.639 49 171.749 49 149.273C49 88.9234 97.9234 40 158.273 40C180.749 40 201.639 46.7854 219.008 58.4194Z" fill="#AEA0F8"/>
<path d="M219.808 230.126C222.714 233.032 222.422 237.841 219.008 240.128C201.639 251.762 180.749 258.547 158.273 258.547C135.798 258.547 114.907 251.762 97.5384 240.128C94.1246 237.841 93.833 233.032 96.7383 230.126L121.693 205.171C123.949 202.915 127.448 202.559 130.286 204.013C138.681 208.314 148.194 210.74 158.273 210.74C168.353 210.74 177.866 208.314 186.26 204.013C189.099 202.559 192.598 202.915 194.854 205.171L219.808 230.126Z" fill="#6349F5"/>
<defs>
<linearGradient id="paint0_linear_2_125" x1="218.25" y1="-11.25" x2="-27.75" y2="314.25" gradientUnits="userSpaceOnUse">
<stop stop-color="#1B134A"/>
<stop offset="1" stop-color="#0A0A0A"/>
</linearGradient>
</defs>
</svg>
