<svg width="300" height="300" viewBox="0 0 300 300" fill="none" xmlns="http://www.w3.org/2000/svg">
<rect width="300" height="300" rx="30" fill="url(#paint0_linear_2_131)"/>
<mask id="mask0_2_131" style="mask-type:luminance" maskUnits="userSpaceOnUse" x="40" y="68" width="220" height="164">
<path d="M40 68.8662H260V231.123H40V68.8662Z" fill="white"/>
</mask>
<g mask="url(#mask0_2_131)">
<path d="M260 146.373V153.616C259.931 154.009 259.844 154.395 259.799 154.786C259.424 157.936 259.182 161.107 258.664 164.234C256.973 174.397 253.317 183.844 247.885 192.579C239.635 205.84 228.483 215.953 214.468 222.859C206.379 226.864 197.658 229.437 188.691 230.466C186.699 230.696 184.709 230.902 182.718 231.121H105.43C105.04 231.049 104.653 230.933 104.26 230.909C96.4667 230.419 88.9686 228.642 81.8217 225.515C66.2624 218.707 54.6612 207.673 47.0672 192.485C43.7115 185.785 41.5398 178.556 40.6482 171.116C40.4291 169.308 40.2155 167.501 40 165.693V158.666C40.0742 158.277 40.1883 157.888 40.2119 157.496C40.6156 150.744 42.0008 144.188 44.4398 137.887C51.0036 120.931 62.4454 108.356 78.7055 100.217C87.1416 95.9924 96.1335 93.7724 105.538 93.2799C110.143 93.0409 114.744 93.298 119.321 93.9119C119.736 93.968 120.334 93.7833 120.621 93.4882C127.203 86.765 134.698 81.304 143.148 77.1647C151.345 73.1504 159.972 70.5629 169.052 69.5272C171.189 69.2827 173.331 69.0817 175.471 68.8608H182.06C182.491 68.9278 182.924 69.0039 183.355 69.0546C186.62 69.4348 189.902 69.6738 193.136 70.2152C203.226 71.9082 212.618 75.5296 221.309 80.9092C234.636 89.1588 244.792 100.325 251.731 114.384C255.743 122.476 258.32 131.204 259.345 140.179C259.58 142.245 259.781 144.311 260 146.373ZM136.99 99.5069C137.122 99.6808 137.155 99.7622 137.211 99.7894C141.736 102.02 146.061 104.635 150.138 107.606C150.395 107.793 151.032 107.715 151.344 107.519C162.548 100.42 174.694 97.9696 187.742 100.284C200.528 102.551 210.932 108.939 218.881 119.142C227.882 130.689 231.313 143.746 228.829 158.273C227.163 168.009 223.263 176.744 216.634 184.061C204.538 197.401 189.392 202.918 171.562 200.582C160.585 199.144 151.11 194.409 143.268 186.484C133.202 176.317 123.071 166.217 112.977 156.077C111.631 154.726 110.134 153.64 108.196 153.402C104.812 152.988 101.741 154.677 100.28 157.717C98.9763 160.432 99.1447 163.492 101.973 166.273C113.227 177.32 124.38 188.468 135.621 199.526C137.545 201.429 139.608 203.184 141.794 204.779C150.005 210.742 159.264 214.039 169.289 215.366C177.159 216.406 184.966 216.183 192.714 214.441C207.493 211.122 219.735 203.579 229.377 191.94C237.339 182.321 242.154 171.269 243.832 158.86C244.805 151.784 244.602 144.596 243.231 137.586C240.995 126.124 236.146 115.868 228.376 107.139C213.552 90.4933 194.902 83.0622 172.708 84.7208C164.171 85.3581 156.095 87.8659 148.495 91.844C144.394 93.9747 140.537 96.5441 136.99 99.5069ZM131.56 215.71C131.254 215.427 130.95 215.143 130.647 214.858C126.046 210.514 121.42 206.197 116.873 201.797C115.993 200.946 115.184 200.531 113.938 200.56C109.333 200.673 104.725 200.692 100.188 199.668C77.6263 194.565 64.5259 170.035 72.8407 148.452C79.399 131.433 97.5549 121.069 115.459 124.265C123.484 125.697 130.528 129.094 136.309 135.056C143.36 142.335 150.621 149.406 157.748 156.611C159.37 158.251 161.234 158.999 163.481 158.679C166.385 158.264 168.697 156.881 169.747 154.033C170.776 151.23 170.278 148.575 168.156 146.426C160.676 138.848 153.373 131.08 145.591 123.825C130.497 109.746 112.698 105.56 93.0119 111.546C66.534 119.591 51.038 146.933 57.0876 173.912C62.6012 198.494 84.0996 215.747 109.256 215.768C116.279 215.776 123.305 215.772 130.329 215.768C130.676 215.768 131.024 215.738 131.56 215.71Z" fill="#DA1F26"/>
</g>
<defs>
<linearGradient id="paint0_linear_2_131" x1="218.25" y1="-11.25" x2="-27.75" y2="314.25" gradientUnits="userSpaceOnUse">
<stop stop-color="#1B134A"/>
<stop offset="1" stop-color="#0A0A0A"/>
</linearGradient>
</defs>
</svg>
