<svg width="300" height="300" viewBox="0 0 300 300" fill="none" xmlns="http://www.w3.org/2000/svg">
<rect width="300" height="300" rx="30" fill="url(#paint0_linear_2_121)"/>
<path d="M78.125 236.25L63.75 56.5625H236.25L221.875 236.25L150 257.812L78.125 236.25Z" fill="#1172B8"/>
<path d="M221.875 70.9375H150V247.031L207.5 229.062L221.875 70.9375Z" fill="#33AADD"/>
<path d="M175.156 160.781H103.281L99.6875 135.625L157.188 117.656H99.6875L96.0938 96.0938H207.5L203.906 121.25L157.188 139.219H200.312L193.125 207.5L150 221.875L106.875 207.5L103.281 171.562H124.844L128.438 189.531L150 196.719L171.562 189.531L175.156 160.781Z" fill="white"/>
<defs>
<linearGradient id="paint0_linear_2_121" x1="218.25" y1="-11.25" x2="-27.75" y2="314.25" gradientUnits="userSpaceOnUse">
<stop stop-color="#1B134A"/>
<stop offset="1" stop-color="#0A0A0A"/>
</linearGradient>
</defs>
</svg>
