<svg width="300" height="300" viewBox="0 0 300 300" fill="none" xmlns="http://www.w3.org/2000/svg">
<rect width="300" height="300" rx="30" fill="url(#paint0_linear_2_129)"/>
<path d="M158.334 149.5C158.334 128.795 174.702 112.026 194.877 112.026C215.067 112.026 231.419 128.779 231.419 149.5C231.419 170.205 215.067 186.974 194.877 186.974C174.718 186.974 158.334 170.221 158.334 149.5Z" fill="#1ABCFE"/>
<path d="M85.25 224.464C85.25 203.759 101.618 186.974 121.792 186.974H158.334V224.464C158.334 245.152 141.967 261.938 121.792 261.938C101.618 261.938 85.25 245.152 85.25 224.464Z" fill="#0ACF83"/>
<path d="M158.334 37.0625V112.026H194.877C215.067 112.026 231.419 95.2409 231.419 74.5363C231.419 53.8478 215.067 37.0625 194.877 37.0625H158.334Z" fill="#FF7262"/>
<path d="M85.25 74.5363C85.25 95.2409 101.618 112.026 121.792 112.026H158.334V37.0625H121.792C101.618 37.0625 85.25 53.8478 85.25 74.5363Z" fill="#F24E1E"/>
<path d="M85.25 149.5C85.25 170.205 101.618 186.974 121.792 186.974H158.334V112.026H121.792C101.618 112.026 85.25 128.779 85.25 149.5Z" fill="#A259FF"/>
<defs>
<linearGradient id="paint0_linear_2_129" x1="218.25" y1="-11.25" x2="-27.75" y2="314.25" gradientUnits="userSpaceOnUse">
<stop stop-color="#1B134A"/>
<stop offset="1" stop-color="#0A0A0A"/>
</linearGradient>
</defs>
</svg>
