<svg width="300" height="300" viewBox="0 0 300 300" fill="none" xmlns="http://www.w3.org/2000/svg">
<rect width="300" height="300" rx="30" fill="url(#paint0_linear_2_126)"/>
<g clip-path="url(#clip0_2_126)">
<path fill-rule="evenodd" clip-rule="evenodd" d="M150 35C213.514 35 265 87.7842 265 152.909C265 204.992 232.087 249.176 186.42 264.781C180.59 265.943 178.52 262.26 178.52 259.121C178.52 255.234 178.658 242.538 178.658 226.76C178.658 215.766 174.978 208.591 170.85 204.934C196.46 202.013 223.37 192.041 223.37 146.754C223.37 133.874 218.908 123.364 211.525 115.107C212.721 112.128 216.665 100.135 210.398 83.8975C210.398 83.8975 200.761 80.7381 178.807 95.9871C169.619 93.3766 159.775 92.0631 150 92.0171C140.225 92.0631 130.393 93.3766 121.216 95.9871C99.239 80.7381 89.579 83.8975 89.579 83.8975C83.3345 100.135 87.279 112.128 88.4635 115.107C81.115 123.364 76.6185 133.874 76.6185 146.754C76.6185 191.926 103.471 202.051 129.013 205.029C125.724 207.973 122.745 213.167 121.71 220.791C115.155 223.804 98.503 229.019 88.245 210.998C88.245 210.998 82.1615 199.669 70.6155 198.841C70.6155 198.841 59.403 198.692 69.8335 206.006C69.8335 206.006 77.366 209.629 82.5985 223.256C82.5985 223.256 89.349 244.301 121.342 237.171C121.4 247.026 121.503 256.315 121.503 259.121C121.503 262.237 119.387 265.885 113.648 264.792C67.9475 249.21 35 205.004 35 152.909C35 87.7842 86.497 35 150 35Z" fill="white"/>
</g>
<defs>
<linearGradient id="paint0_linear_2_126" x1="218.25" y1="-11.25" x2="-27.75" y2="314.25" gradientUnits="userSpaceOnUse">
<stop stop-color="#1B134A"/>
<stop offset="1" stop-color="#0A0A0A"/>
</linearGradient>
<clipPath id="clip0_2_126">
<rect width="230" height="230" fill="white" transform="translate(35 35)"/>
</clipPath>
</defs>
</svg>
