<svg width="300" height="300" viewBox="0 0 300 300" fill="none" xmlns="http://www.w3.org/2000/svg">
<rect width="300" height="300" rx="30" fill="url(#paint0_linear_2_130)"/>
<path d="M187.875 107.032L218.775 82.4695L213.338 75.6902C201.003 64.9356 186.151 57.4702 170.161 53.9864C154.17 50.5026 137.559 51.1133 121.868 55.7618C106.237 60.4835 92.0605 69.0963 80.6674 80.7931C69.2742 92.4899 61.0371 106.888 56.728 122.637C56.2367 124.488 61.837 121.033 64.3096 121.72L107.016 114.712C107.016 114.712 109.095 112.681 110.307 111.355C129.302 90.6242 161.495 87.906 183.421 105.558L187.875 107.032Z" fill="#EA4335"/>
<path d="M242.306 122.162C237.387 104.175 227.311 88.0207 213.322 75.6902L183.356 105.493C189.587 110.548 194.584 116.956 197.969 124.231C201.354 131.506 203.037 139.456 202.891 147.478V152.767C217.629 152.767 229.582 164.639 229.582 179.295C229.582 193.918 217.629 205.806 202.891 205.806L149.558 205.757L144.236 206.33V247.382L149.558 248.25H202.891C217.756 248.396 232.273 243.76 244.303 235.027C256.332 226.294 265.236 213.926 269.701 199.747C274.109 185.588 273.822 170.384 268.882 156.402C263.942 142.42 254.614 130.409 242.289 122.162H242.306Z" fill="#4285F4"/>
<path d="M96.1426 248.234H149.509V205.757H96.1262C92.3272 205.757 88.5774 204.676 85.1222 203.12L77.6225 205.413L56.1221 226.651L54.2554 233.971C66.2942 243.142 80.9923 248.143 96.1262 248.217L96.1426 248.234Z" fill="#34A853"/>
<path d="M96.1426 110.242C81.7203 110.301 67.6757 114.858 55.9647 123.275C44.2537 131.693 35.4593 143.554 30.8064 157.205C26.2025 170.848 25.9902 185.59 30.1992 199.36C34.4082 213.13 42.827 225.234 54.2718 233.971L85.2205 203.121C79.9619 200.776 75.611 196.781 72.8268 191.741C70.0427 186.701 68.9772 180.891 69.7917 175.192C70.6062 169.492 73.2564 164.213 77.3407 160.155C81.4249 156.096 86.7207 153.48 92.4255 152.702C98.1315 151.883 103.949 152.934 109.008 155.697C114.068 158.46 118.096 162.786 120.492 168.029L151.441 137.277C144.921 128.82 136.538 121.981 126.944 117.292C117.35 112.604 106.821 110.191 96.1426 110.242Z" fill="#FBBC05"/>
<defs>
<linearGradient id="paint0_linear_2_130" x1="218.25" y1="-11.25" x2="-27.75" y2="314.25" gradientUnits="userSpaceOnUse">
<stop stop-color="#1B134A"/>
<stop offset="1" stop-color="#0A0A0A"/>
</linearGradient>
</defs>
</svg>
