<svg width="300" height="300" viewBox="0 0 300 300" fill="none" xmlns="http://www.w3.org/2000/svg">
<rect width="300" height="300" rx="30" fill="url(#paint0_linear_2_119)"/>
<g clip-path="url(#clip0_2_119)">
<path d="M45 45H255V255H45V45Z" fill="#F7DF1E"/>
<path d="M100.217 220.491L116.287 210.766C119.388 216.263 122.208 220.914 128.973 220.914C135.458 220.914 139.546 218.377 139.546 208.51V141.41H159.281V208.789C159.281 229.229 147.299 238.533 129.819 238.533C114.032 238.533 104.868 230.357 100.216 220.49" fill="black"/>
<path d="M170 218.377L186.069 209.073C190.299 215.981 195.796 221.055 205.522 221.055C213.699 221.055 218.914 216.967 218.914 211.328C218.914 204.562 213.557 202.165 204.535 198.22L199.603 196.104C185.365 190.043 175.92 182.431 175.92 166.361C175.92 151.56 187.197 140.282 204.818 140.282C217.364 140.282 226.386 144.652 232.869 156.071L217.504 165.938C214.121 159.877 210.457 157.481 204.818 157.481C199.039 157.481 195.373 161.146 195.373 165.938C195.373 171.858 199.039 174.255 207.496 177.921L212.429 180.035C229.204 187.225 238.649 194.554 238.649 211.046C238.649 228.809 224.694 238.535 205.946 238.535C187.62 238.535 175.779 229.795 170 218.377Z" fill="black"/>
</g>
<defs>
<linearGradient id="paint0_linear_2_119" x1="218.25" y1="-11.25" x2="-27.75" y2="314.25" gradientUnits="userSpaceOnUse">
<stop stop-color="#1B134A"/>
<stop offset="1" stop-color="#0A0A0A"/>
</linearGradient>
<clipPath id="clip0_2_119">
<rect width="210" height="210" fill="white" transform="translate(45 45)"/>
</clipPath>
</defs>
</svg>
