<svg width="300" height="300" viewBox="0 0 300 300" fill="none" xmlns="http://www.w3.org/2000/svg">
<rect width="300" height="300" rx="30" fill="url(#paint0_linear_2_115)"/>
<g clip-path="url(#clip0_2_115)">
<path d="M63.6115 217.822C53.2602 217.844 43.6975 212.295 38.5809 203.297C33.5381 194.354 33.8405 183.358 39.3672 174.706L90.9136 93.7608C96.2847 84.9041 106.006 79.6222 116.359 79.935C126.705 80.183 136.116 85.9837 140.986 95.115C145.791 104.201 145.19 115.133 139.435 123.662L87.9213 204.607C82.6121 212.881 73.4417 217.865 63.6115 217.822Z" fill="#F62B54"/>
<path d="M152.027 217.822C141.63 217.822 132.063 212.263 127.04 203.33C122.008 194.411 122.311 183.443 127.826 174.815L179.274 94.0557C184.568 85.0718 194.318 79.6659 204.742 79.935C215.226 80.1644 224.727 86.0289 229.532 95.2024C234.304 104.376 233.605 115.373 227.675 123.881L176.238 204.64C170.946 212.878 161.818 217.847 152.027 217.822Z" fill="#FFCC00"/>
<path d="M238.465 218.499C253.121 218.499 265.003 206.867 265.003 192.518C265.003 178.169 253.121 166.537 238.465 166.537C223.809 166.537 211.927 178.169 211.927 192.518C211.927 206.867 223.809 218.499 238.465 218.499Z" fill="#00CA72"/>
</g>
<defs>
<linearGradient id="paint0_linear_2_115" x1="218.25" y1="-11.25" x2="-27.75" y2="314.25" gradientUnits="userSpaceOnUse">
<stop stop-color="#1B134A"/>
<stop offset="1" stop-color="#0A0A0A"/>
</linearGradient>
<clipPath id="clip0_2_115">
<rect width="230" height="230" fill="white" transform="translate(35 35)"/>
</clipPath>
</defs>
</svg>
