<svg width="300" height="300" viewBox="0 0 300 300" fill="none" xmlns="http://www.w3.org/2000/svg">
<rect width="300" height="300" rx="30" fill="url(#paint0_linear_2_118)"/>
<g clip-path="url(#clip0_2_118)">
<path d="M205.708 250.645C204.855 251.095 204.903 251.277 205.756 250.846C206.006 250.739 206.233 250.586 206.427 250.395C206.427 250.242 206.408 250.261 205.708 250.645ZM207.414 249.744C207.011 250.06 207.011 250.079 207.5 249.83C207.768 249.696 207.998 249.542 207.998 249.494C207.998 249.312 207.883 249.36 207.414 249.744ZM208.535 249.063C208.133 249.379 208.133 249.399 208.621 249.15C208.89 249.015 209.12 248.862 209.12 248.814C209.12 248.632 209.005 248.68 208.535 249.063ZM209.656 248.392C209.254 248.709 209.254 248.728 209.743 248.479C210.011 248.344 210.241 248.191 210.241 248.143C210.241 247.961 210.126 248.009 209.656 248.392ZM211.209 247.386C210.423 247.885 210.174 248.22 210.873 247.837C211.372 247.549 212.177 246.936 212.043 246.917C211.749 247.043 211.469 247.2 211.209 247.386ZM142.468 35.0578C141.969 35.1057 140.398 35.2591 138.979 35.3741C106.319 38.3161 75.7197 55.9399 56.3422 83.032C45.6296 97.9019 38.6664 115.139 36.0447 133.277C35.1247 139.593 35.0097 141.462 35.0097 150.029C35.0097 158.597 35.1247 160.456 36.0447 166.781C42.2931 209.963 73.0268 246.246 114.705 259.691C122.17 262.097 130.038 263.735 138.979 264.722C142.468 265.106 157.523 265.106 161.011 264.722C176.45 263.017 189.541 259.193 202.44 252.609C204.414 251.593 204.798 251.325 204.529 251.104C198.228 242.779 191.986 234.41 185.803 225.996L167.413 201.156L144.375 167.059C136.715 155.649 128.981 144.29 121.173 132.98C121.087 132.961 120.991 148.112 120.953 166.608C120.886 199 120.867 200.303 120.455 201.07C120.064 201.966 119.363 202.69 118.481 203.111C117.762 203.475 117.129 203.542 113.737 203.542H109.846L108.811 202.891C108.172 202.488 107.653 201.923 107.306 201.252L106.837 200.236L106.885 155.166L106.952 110.076L107.651 109.204C108.121 108.652 108.686 108.188 109.319 107.834C110.239 107.383 110.603 107.335 114.494 107.335C119.084 107.335 119.841 107.517 121.039 108.821C130.365 122.7 139.613 136.631 148.783 150.614C163.714 173.249 184.117 204.156 194.151 219.336L212.359 246.917L213.279 246.313C222.04 240.485 229.985 233.514 236.902 225.584C251.391 209.002 260.788 188.591 263.965 166.8C264.885 160.484 265 158.616 265 150.048C265 141.481 264.885 139.622 263.965 133.297C257.717 90.1141 226.983 53.8316 185.305 40.3861C177.516 37.9064 169.495 36.2271 161.366 35.3741C159.21 35.1536 144.346 34.9045 142.487 35.0866L142.468 35.0578ZM189.541 104.614C190.077 104.883 190.554 105.256 190.944 105.712C191.334 106.168 191.629 106.697 191.812 107.268C191.994 107.853 192.033 120.349 191.994 148.515L191.927 188.937L184.797 178.012L177.648 167.087V137.705C177.648 118.711 177.734 108.035 177.868 107.517C178.031 106.92 178.311 106.361 178.693 105.874C179.075 105.387 179.551 104.981 180.092 104.681C181.012 104.211 181.347 104.163 184.883 104.163C188.209 104.163 188.793 104.211 189.541 104.614Z" fill="white"/>
</g>
<defs>
<linearGradient id="paint0_linear_2_118" x1="218.25" y1="-11.25" x2="-27.75" y2="314.25" gradientUnits="userSpaceOnUse">
<stop stop-color="#1B134A"/>
<stop offset="1" stop-color="#0A0A0A"/>
</linearGradient>
<clipPath id="clip0_2_118">
<rect width="230" height="230" fill="white" transform="translate(35 35)"/>
</clipPath>
</defs>
</svg>
