<svg width="300" height="300" viewBox="0 0 300 300" fill="none" xmlns="http://www.w3.org/2000/svg">
<rect width="300" height="300" rx="30" fill="url(#paint0_linear_2_116)"/>
<g clip-path="url(#clip0_2_116)">
<path d="M129.913 201.323H119.87V126.167L172.278 204.603C176.987 211.65 185.628 214.984 193.864 212.929L196.414 212.293C198.65 211.735 200.217 209.731 200.217 207.432V101.115C200.217 101.115 210.261 101.115 210.261 91.0942H180.13C170.087 91.0942 170.087 101.115 170.087 101.115H180.13V161.24L131.416 93.1924C130.472 91.8756 128.951 91.0942 127.33 91.0942H99.7826C89.7391 91.0942 89.7391 101.115 89.7391 101.115H99.7826V201.323C99.7826 201.323 89.7391 201.323 89.7391 211.344H119.87C129.913 211.344 129.913 201.323 129.913 201.323Z" fill="white"/>
<path fill-rule="evenodd" clip-rule="evenodd" d="M40 70.3986C40 53.8301 53.4315 40.3986 70 40.3986H230C246.569 40.3986 260 53.8301 260 70.3986V230.399C260 246.968 246.569 260.399 230 260.399H70C53.4315 260.399 40 246.968 40 230.399V70.3986ZM70 60.3986H230C235.523 60.3986 240 64.8758 240 70.3986V230.399C240 235.922 235.523 240.399 230 240.399H70C64.4772 240.399 60 235.922 60 230.399V70.3986C60 64.8758 64.4772 60.3986 70 60.3986Z" fill="white"/>
</g>
<defs>
<linearGradient id="paint0_linear_2_116" x1="218.25" y1="-11.25" x2="-27.75" y2="314.25" gradientUnits="userSpaceOnUse">
<stop stop-color="#1B134A"/>
<stop offset="1" stop-color="#0A0A0A"/>
</linearGradient>
<clipPath id="clip0_2_116">
<rect width="220" height="220" fill="white" transform="translate(40 40)"/>
</clipPath>
</defs>
</svg>
