<svg width="300" height="300" viewBox="0 0 300 300" fill="none" xmlns="http://www.w3.org/2000/svg">
<rect width="300" height="300" rx="30" fill="url(#paint0_linear_2_132)"/>
<path fill-rule="evenodd" clip-rule="evenodd" d="M171.641 37.3646C173.497 36.4355 175.627 36.2118 177.635 36.7352C179.643 37.2586 181.393 38.4935 182.559 40.2102L221.611 97.7074C222.875 99.5691 223.355 101.853 222.949 104.067L197.619 241.672C197.458 242.544 197.162 243.387 196.742 244.169L188.729 259.103C187.778 260.876 186.233 262.258 184.365 263.005C182.496 263.753 180.425 263.818 178.513 263.191L120.051 243.989C118.907 243.614 117.856 243.001 116.965 242.192C116.074 241.382 115.364 240.394 114.881 239.291L72.6433 142.926C72.1509 141.803 71.9057 140.587 71.9242 139.36C71.9427 138.134 72.2244 136.926 72.7503 135.818L101.951 74.3004C102.77 72.5743 104.143 71.1718 105.851 70.316L171.641 37.3646ZM104.848 108.134L89.8967 139.629L110.909 187.569L106.437 120.779L104.848 108.134ZM126.411 162.767L130.881 229.521L164.553 240.581L126.411 162.767ZM181.284 235.806L205.027 106.834L170.574 86.3707L125.672 122.35L181.284 235.806ZM121.551 103.707L161.996 71.3007L163.985 60.3521L118.938 82.9143L121.551 103.707ZM180.155 67.1507L179.336 71.6574L185.841 75.5206L180.155 67.1507Z" fill="#E2D1FF"/>
<defs>
<linearGradient id="paint0_linear_2_132" x1="218.25" y1="-11.25" x2="-27.75" y2="314.25" gradientUnits="userSpaceOnUse">
<stop stop-color="#1B134A"/>
<stop offset="1" stop-color="#0A0A0A"/>
</linearGradient>
</defs>
</svg>
