<svg width="300" height="300" viewBox="0 0 300 300" fill="none" xmlns="http://www.w3.org/2000/svg">
<rect width="300" height="300" rx="30" fill="url(#paint0_linear_2_123)"/>
<path fill-rule="evenodd" clip-rule="evenodd" d="M128.555 49.375C112.764 49.375 99.9624 61.7701 99.9624 77.0602V96.2269H149.45V101.551H77.9679C62.1764 101.551 49.375 113.946 49.375 129.236V170.764C49.375 186.054 62.1764 198.449 77.9679 198.449H94.4638V175.023C94.4638 159.733 107.265 147.338 123.057 147.338H175.843C189.206 147.338 200.037 136.85 200.037 123.912V77.0602C200.037 61.7701 187.236 49.375 171.445 49.375H128.555ZM121.957 83.4491C127.423 83.4491 131.854 79.1584 131.854 73.8658C131.854 68.573 127.423 64.2824 121.957 64.2824C116.49 64.2824 112.059 68.573 112.059 73.8658C112.059 79.1584 116.49 83.4491 121.957 83.4491Z" fill="url(#paint1_linear_2_123)"/>
<path fill-rule="evenodd" clip-rule="evenodd" d="M171.443 250.625C187.235 250.625 200.037 238.23 200.037 222.94V203.773H150.548V198.45H222.031C237.823 198.45 250.624 186.054 250.624 170.764V129.236C250.624 113.946 237.823 101.551 222.031 101.551H205.535V124.977C205.535 140.267 192.733 152.662 176.942 152.662H124.155C110.793 152.662 99.9613 163.15 99.9613 176.088V222.94C99.9613 238.23 112.763 250.625 128.554 250.625H171.443ZM178.042 216.551C172.575 216.551 168.144 220.841 168.144 226.134C168.144 231.427 172.575 235.717 178.042 235.717C183.508 235.717 187.939 231.427 187.939 226.134C187.939 220.841 183.508 216.551 178.042 216.551Z" fill="url(#paint2_linear_2_123)"/>
<defs>
<linearGradient id="paint0_linear_2_123" x1="218.25" y1="-11.25" x2="-27.75" y2="314.25" gradientUnits="userSpaceOnUse">
<stop stop-color="#1B134A"/>
<stop offset="1" stop-color="#0A0A0A"/>
</linearGradient>
<linearGradient id="paint1_linear_2_123" x1="124.706" y1="49.375" x2="124.706" y2="198.449" gradientUnits="userSpaceOnUse">
<stop stop-color="#327EBD"/>
<stop offset="1" stop-color="#1565A7"/>
</linearGradient>
<linearGradient id="paint2_linear_2_123" x1="175.293" y1="101.551" x2="175.293" y2="250.625" gradientUnits="userSpaceOnUse">
<stop stop-color="#FFDA4B"/>
<stop offset="1" stop-color="#F9C600"/>
</linearGradient>
</defs>
</svg>
