<svg width="300" height="300" viewBox="0 0 300 300" fill="none" xmlns="http://www.w3.org/2000/svg">
<rect width="300" height="300" rx="30" fill="url(#paint0_linear_2_117)"/>
<path d="M137.059 197.887C141.277 198.08 145.587 198.219 149.95 198.219C154.36 198.219 158.716 198.126 162.987 197.887C158.716 203.439 154.498 208.351 150.035 213.032L150.096 212.971C145.656 208.344 141.392 203.424 137.373 198.304L137.059 197.887ZM93.3608 191.718C101.666 193.839 111.797 195.643 122.135 196.754L123.139 196.839C129.466 205.575 135.862 213.264 142.726 220.497L142.642 220.404C132.588 231.686 119.021 239.613 103.676 242.459L103.254 242.52C103.223 242.52 103.192 242.52 103.162 242.52C101.26 242.52 99.4653 242.05 97.8932 241.217L97.9545 241.248C91.574 237.585 88.8055 223.574 90.9605 205.568C91.4743 201.134 92.3179 196.468 93.3532 191.71L93.3608 191.718ZM206.731 191.618C207.636 195.273 208.487 199.931 209.093 204.665L209.162 205.329C211.363 223.327 208.648 237.323 202.322 241.063C200.91 241.849 199.223 242.312 197.429 242.312C197.252 242.312 197.076 242.304 196.9 242.297H196.923C181.178 239.405 167.619 231.532 157.588 220.389L157.535 220.327C164.276 213.21 170.626 205.537 176.446 197.463L176.891 196.815C188.211 195.628 198.357 193.793 208.242 191.286L206.731 191.61V191.618ZM102.326 162.839C104.243 166.618 106.252 170.381 108.461 174.16C110.665 177.918 112.917 181.588 115.217 185.171C108.561 184.192 102.134 182.958 95.9913 181.454C97.7168 175.386 99.8795 169.101 102.318 162.824L102.326 162.839ZM197.636 162.647C200.174 168.978 202.329 175.293 204.116 181.416C197.981 182.927 191.501 184.207 184.798 185.171C187.099 181.555 189.399 177.83 191.554 174.013C193.709 170.258 195.726 166.417 197.651 162.639L197.636 162.647ZM85.7225 121.399C89.0662 132.796 92.6553 142.327 96.8349 151.519L96.2597 150.116C92.686 157.866 89.1506 167.343 86.2517 177.098L85.8529 178.678C80.4386 177.005 76.0827 175.363 71.8417 173.52L72.7236 173.859C56.128 166.757 45.3914 157.418 45.3914 150.015C45.3914 142.613 56.128 133.228 72.7236 126.157C76.7499 124.422 81.1672 122.856 85.7225 121.399ZM214.093 121.36C218.733 122.802 223.143 124.414 227.269 126.157C243.864 133.29 254.601 142.613 254.601 150.015C254.555 157.418 243.818 166.78 227.223 173.867C223.196 175.602 218.787 177.159 214.239 178.617C210.865 167.181 207.276 157.657 203.111 148.45L203.694 149.9C207.253 142.158 210.796 132.68 213.687 122.926L214.093 121.337V121.36ZM184.737 114.86C191.401 115.854 197.82 117.073 203.963 118.592C202.237 124.684 200.082 130.945 197.636 137.222C195.719 133.467 193.709 129.681 191.501 125.91C189.346 122.131 187.045 118.453 184.744 114.867L184.737 114.86ZM115.164 114.86C112.863 118.492 110.562 122.208 108.415 126.041C106.26 129.796 104.243 133.575 102.326 137.353C99.7874 131.03 97.6325 124.73 95.8456 118.592C101.981 117.15 108.446 115.862 115.156 114.875L115.164 114.86ZM149.996 112.407C157.09 112.407 164.153 112.731 171.101 113.302C174.992 118.911 178.77 124.884 182.436 131.223C185.999 137.392 189.251 143.643 192.191 149.977C189.238 156.292 186.002 162.6 182.482 168.769C178.839 175.131 175.074 181.185 171.17 186.791C164.191 187.4 157.121 187.731 149.988 187.731C142.895 187.731 135.832 187.392 128.883 186.837C124.995 181.231 121.199 175.231 117.549 168.916C113.985 162.747 110.734 156.495 107.794 150.162C110.7 143.831 113.983 137.508 117.503 131.331C121.146 124.969 124.911 118.939 128.814 113.333C135.793 112.716 142.864 112.392 149.996 112.392V112.407ZM149.85 87.1065C154.298 91.7333 158.562 96.6454 162.573 101.766L162.88 102.174C158.662 101.982 154.352 101.851 149.988 101.851C145.579 101.851 141.223 101.943 136.951 102.174C141.215 96.6223 145.433 91.7102 149.904 87.0294L149.843 87.0911L149.85 87.1065ZM103.062 57.711C118.806 60.6105 132.358 68.4837 142.396 79.6189L142.45 79.6805C135.709 86.8058 129.359 94.4786 123.538 102.568L123.093 103.215C111.782 104.395 101.636 106.215 91.758 108.721L93.2611 108.397C92.1875 103.678 91.3899 99.1053 90.8301 94.7176C88.6291 76.7194 91.3439 62.7234 97.6708 58.9988C99.2506 58.2508 101.099 57.7881 103.047 57.7264H103.07L103.062 57.711ZM196.7 57.5182V57.5799C196.8 57.5799 196.915 57.5722 197.038 57.5722C198.871 57.5722 200.596 58.0272 202.114 58.8292L202.053 58.7983C208.434 62.4766 211.202 76.4804 209.047 94.494C208.533 98.928 207.69 103.601 206.655 108.367C198.334 106.223 188.203 104.411 177.865 103.308L176.884 103.223C170.549 94.4786 164.153 86.7904 157.289 79.5494L157.381 79.642C167.435 68.3835 180.979 60.4562 196.294 57.5953L196.723 57.5259L196.7 57.5182ZM196.746 47.0154C178.019 49.8763 161.806 59.0219 149.965 72.216L149.904 72.2854C137.979 59.099 121.767 50.0151 103.499 47.2622L103.07 47.2082C102.97 47.2082 102.847 47.2082 102.725 47.2082C98.9592 47.2082 95.4238 48.203 92.3639 49.9457L92.4712 49.8917C79.296 57.5337 76.3434 81.3462 83.1458 111.228C53.973 120.288 35 134.77 35 150.031C35 165.353 54.0727 179.874 83.3298 188.865C76.5811 218.862 79.595 242.713 92.801 250.347C95.6999 252.021 99.1816 253 102.886 253C103.054 253 103.223 253 103.384 252.992H103.361C122.089 250.131 138.301 240.978 150.142 227.776L150.203 227.707C162.128 240.901 178.341 249.985 196.608 252.738L197.038 252.792C197.153 252.792 197.298 252.792 197.436 252.792C201.179 252.792 204.699 251.805 207.743 250.085L207.636 250.139C220.804 242.505 223.764 218.692 216.962 188.803C246.027 179.82 265 165.307 265 150.023C265 134.701 245.927 120.18 216.67 111.166C223.419 81.1997 220.405 57.3254 207.199 49.6835C204.269 47.9948 200.757 47 197.015 47C196.915 47 196.815 47 196.716 47H196.731L196.746 47.0154ZM171.37 150.031C171.37 161.929 161.776 171.576 149.942 171.576C138.109 171.576 128.515 161.929 128.515 150.031C128.515 138.132 138.109 128.485 149.942 128.485C155.863 128.485 161.216 130.899 165.096 134.793C168.977 138.695 171.37 144.078 171.37 150.031Z" fill="#3DB1D7"/>
<defs>
<linearGradient id="paint0_linear_2_117" x1="218.25" y1="-11.25" x2="-27.75" y2="314.25" gradientUnits="userSpaceOnUse">
<stop stop-color="#1B134A"/>
<stop offset="1" stop-color="#0A0A0A"/>
</linearGradient>
</defs>
</svg>
