<svg width="300" height="300" viewBox="0 0 300 300" fill="none" xmlns="http://www.w3.org/2000/svg">
<rect width="300" height="300" rx="30" fill="url(#paint0_linear_2_122)"/>
<g clip-path="url(#clip0_2_122)">
<path d="M150 35C213.25 35 265 86.75 265 150C265 213.25 213.25 265 150 265C86.75 265 35 213.25 35 150C35 86.75 86.75 35 150 35ZM127 188.094C128.438 194.562 128.438 200.312 127 205.344L126.281 207.5C126.281 208.219 125.562 208.937 125.562 208.937C124.125 211.812 122.687 213.969 120.531 216.844C114.062 224.031 104.719 226.906 100.406 224.75C96.0937 222.594 98.25 211.812 106.156 203.906C114.781 195.281 126.281 189.531 126.281 189.531L127 188.094ZM221.875 83.875C216.844 63.75 183.062 56.5625 150.719 68.0625C132.031 75.25 111.187 86.0312 96.0937 99.6875C78.125 116.219 75.9687 130.594 76.6875 136.344C81 157.187 109.75 171.562 121.969 181.625C118.375 183.062 92.5 196 86.75 209.656C80.2812 224.031 87.4687 234.094 92.5 234.812C107.594 239.125 123.406 231.219 131.312 219C139.219 206.781 138.5 191.687 134.906 183.781C139.937 182.344 144.969 181.625 152.156 183.062C172.281 185.219 176.594 198.156 175.156 203.187C173.719 208.219 170.125 211.094 168.687 212.531C167.25 213.25 166.531 213.969 167.25 213.969C167.25 214.687 167.969 214.687 169.406 214.687C170.844 214.687 180.187 210.375 180.187 200.312C180.906 188.094 168.687 174.437 147.844 174.437C139.219 174.437 133.469 175.156 129.875 176.594C129.875 175.875 129.156 175.875 129.156 175.875C116.219 162.219 92.5 152.156 93.2187 133.469C93.2187 127 96.0937 109.031 139.219 87.4687C174.437 69.5 203.188 74.5312 208.219 85.3125C215.406 100.406 193.125 129.156 156.469 133.469C142.094 134.906 134.906 129.875 133.469 127.719C131.312 125.562 131.313 125.562 130.594 125.562C129.156 126.281 129.875 127.719 130.594 129.156C132.031 132.031 136.344 137.062 144.25 139.937C150.719 142.094 167.25 143.531 187.375 135.625C209.656 127 226.906 103.281 221.875 83.1562V83.875Z" fill="#CF649A"/>
</g>
<defs>
<linearGradient id="paint0_linear_2_122" x1="218.25" y1="-11.25" x2="-27.75" y2="314.25" gradientUnits="userSpaceOnUse">
<stop stop-color="#1B134A"/>
<stop offset="1" stop-color="#0A0A0A"/>
</linearGradient>
<clipPath id="clip0_2_122">
<rect width="230" height="230" fill="white" transform="translate(35 35)"/>
</clipPath>
</defs>
</svg>
