<svg width="300" height="300" viewBox="0 0 300 300" fill="none" xmlns="http://www.w3.org/2000/svg">
<rect width="300" height="300" rx="30" fill="url(#paint0_linear_2_128)"/>
<path d="M94 121.6C101.467 91.7333 120.133 76.8 150 76.8C194.8 76.8 200.4 110.4 222.8 116C237.733 119.733 250.8 114.133 262 99.2C254.533 129.067 235.867 144 206 144C161.2 144 155.6 110.4 133.2 104.8C118.267 101.067 105.2 106.667 94 121.6ZM38 188.8C45.4667 158.933 64.1333 144 94 144C138.8 144 144.4 177.6 166.8 183.2C181.733 186.933 194.8 181.333 206 166.4C198.533 196.267 179.867 211.2 150 211.2C105.2 211.2 99.6 177.6 77.2 172C62.2667 168.267 49.2 173.867 38 188.8Z" fill="#44A8B3"/>
<defs>
<linearGradient id="paint0_linear_2_128" x1="218.25" y1="-11.25" x2="-27.75" y2="314.25" gradientUnits="userSpaceOnUse">
<stop stop-color="#1B134A"/>
<stop offset="1" stop-color="#0A0A0A"/>
</linearGradient>
</defs>
</svg>
