<svg width="300" height="300" viewBox="0 0 300 300" fill="none" xmlns="http://www.w3.org/2000/svg">
<rect width="300" height="300" rx="30" fill="url(#paint0_linear_2_114)"/>
<g clip-path="url(#clip0_2_114)">
<path d="M45 150V255H150H255V150V45H150H45V150Z" fill="#007ACC"/>
<path d="M91.4389 150.697L91.3722 159.297H105.039H118.706V198.13V236.963H128.372H138.039V198.13V159.297H151.706H165.372V150.863C165.372 146.197 165.272 142.297 165.139 142.197C165.039 142.063 148.406 141.997 128.239 142.03L91.5389 142.13L91.4389 150.697Z" fill="white"/>
<path d="M214.449 141.886C219.782 143.219 223.849 145.586 227.582 149.452C229.516 151.519 232.382 155.286 232.616 156.186C232.682 156.452 223.549 162.586 218.016 166.019C217.816 166.152 217.016 165.286 216.116 163.952C213.416 160.019 210.582 158.319 206.249 158.019C199.882 157.586 195.782 160.919 195.816 166.486C195.816 168.119 196.049 169.086 196.716 170.419C198.116 173.319 200.716 175.052 208.882 178.586C223.916 185.052 230.349 189.319 234.349 195.386C238.816 202.152 239.816 212.952 236.782 220.986C233.449 229.719 225.182 235.652 213.549 237.619C209.949 238.252 201.416 238.152 197.549 237.452C189.116 235.952 181.116 231.786 176.182 226.319C174.249 224.186 170.482 218.619 170.716 218.219C170.816 218.086 171.682 217.552 172.649 216.986C173.582 216.452 177.116 214.419 180.449 212.486L186.482 208.986L187.749 210.852C189.516 213.552 193.382 217.252 195.716 218.486C202.416 222.019 211.616 221.519 216.149 217.452C218.082 215.686 218.882 213.852 218.882 211.152C218.882 208.719 218.582 207.652 217.316 205.819C215.682 203.486 212.349 201.519 202.882 197.419C192.049 192.752 187.382 189.852 183.116 185.252C180.649 182.586 178.316 178.319 177.349 174.752C176.549 171.786 176.349 164.352 176.982 161.352C179.216 150.886 187.116 143.586 198.516 141.419C202.216 140.719 210.816 140.986 214.449 141.886Z" fill="white"/>
</g>
<defs>
<linearGradient id="paint0_linear_2_114" x1="218.25" y1="-11.25" x2="-27.75" y2="314.25" gradientUnits="userSpaceOnUse">
<stop stop-color="#1B134A"/>
<stop offset="1" stop-color="#0A0A0A"/>
</linearGradient>
<clipPath id="clip0_2_114">
<rect width="210" height="210" fill="white" transform="translate(45 45)"/>
</clipPath>
</defs>
</svg>
