<svg width="300" height="300" viewBox="0 0 300 300" fill="none" xmlns="http://www.w3.org/2000/svg">
<rect width="300" height="300" rx="30" fill="url(#paint0_linear_2_133)"/>
<g clip-path="url(#clip0_2_133)">
<path fill-rule="evenodd" clip-rule="evenodd" d="M35 149.996C35 195.516 61.4508 234.855 99.8116 253.493L44.955 103.197C38.5795 117.493 35 133.321 35 149.996ZM227.633 144.196C227.633 129.979 222.522 120.139 218.152 112.484C212.323 103.003 206.853 94.9816 206.853 85.5081C206.853 74.935 214.867 65.095 226.166 65.095C226.676 65.095 227.158 65.1596 227.654 65.1883C207.198 46.4427 179.935 35 149.998 35C109.818 35 74.4765 55.6144 53.9124 86.8307C56.615 86.9169 59.1594 86.9672 61.3157 86.9672C73.3408 86.9672 91.9642 85.5081 91.9642 85.5081C98.16 85.1416 98.8931 94.2556 92.6973 94.9815C92.6973 94.9815 86.4655 95.7146 79.5366 96.0812L121.412 220.645L146.584 145.166L128.672 96.0812C122.476 95.7146 116.604 94.9815 116.604 94.9815C110.408 94.6149 111.134 85.1416 117.337 85.5081C117.337 85.5081 136.327 86.9672 147.626 86.9672C159.651 86.9672 178.274 85.5081 178.274 85.5081C184.477 85.1416 185.203 94.2556 179.008 94.9815C179.008 94.9815 172.769 95.7146 165.847 96.0812L207.406 219.696L218.885 181.371C223.845 165.457 227.633 154.036 227.633 144.196ZM250.912 94.8256C251.408 98.4914 251.688 102.416 251.688 106.65C251.688 118.315 249.503 131.433 242.941 147.842L207.814 249.398C242.006 229.466 265 192.42 265 149.999C265 130.002 259.89 111.206 250.912 94.8256ZM152.018 160.056L117.509 260.318C127.816 263.351 138.713 265.004 149.998 265.004C163.389 265.004 176.233 262.69 188.186 258.485C187.884 257.989 187.597 257.472 187.367 256.904L152.018 160.056Z" fill="#2EA2C9"/>
</g>
<defs>
<linearGradient id="paint0_linear_2_133" x1="218.25" y1="-11.25" x2="-27.75" y2="314.25" gradientUnits="userSpaceOnUse">
<stop stop-color="#1B134A"/>
<stop offset="1" stop-color="#0A0A0A"/>
</linearGradient>
<clipPath id="clip0_2_133">
<rect width="230" height="230" fill="white" transform="translate(35 35)"/>
</clipPath>
</defs>
</svg>
